# xmcd
#
# Track frame offsets: 
#        150
#        14875
#        27727
#        44097
#        58237
#        72095
#        87260
#        102640
#        117755
#        132412
#
# Disc length: 1927 seconds
#
# Revision: 2
# Processed by: cddbd v1.5PL3 Copyright (c) Steve Scherf et al.
# Submitted via: ExactAudioCopy v0.90b4
#
DISCID=9b07850a
DTITLE=Merle Haggard - Greatest Hits Of The 80's
DYEAR=1900
DGENRE=Country
TTITLE0=Yesterday's Wine
TTITLE1=Let's Chase Each Other Around The Room
TTITLE2=A Place To Fall Apart
TTITLE3=Natural High
TTITLE4=I Had A Beautiful Time
TTITLE5=A Friend In California
TTITLE6=Twinkle, Twinkle Lucky Star
TTITLE7=Chill Factor
TTITLE8=5:01 Blues
TTITLE9=A Better Love Next Time
EXTD=Songs 1-4 AAD\nSongs 5-10 DDD\n
EXTT0=Merle Haggard, George Jones
EXTT1=Merle Haggard
EXTT2=Merle Haggard
EXTT3=Merle Haggard, Janie Frickie
EXTT4=Merle Haggard
EXTT5=Merle Haggard
EXTT6=Merle Haggard
EXTT7=Merle Haggard
EXTT8=Merle Haggard
EXTT9=Merle Haggard
PLAYORDER=
